<?xml version="1.0" encoding="UTF-8"?><svg id="Layer_2" xmlns="http://www.w3.org/2000/svg" viewBox="0 0 250 100"><defs><style>.cls-1{fill:#fff;}</style></defs><path class="cls-1" d="m96.99,35.95h.15v1.26s-.99.13-.99.13c-1.68.25-1.68.55-1.68,4.33v13.71c0,3.78,0,4.09,1.68,4.34,0,0,.89.12,1,.13v1.26h-10.54v-1.26s.13-.02.13-.02c.72-.09.69-.09.76-.09.06,0,.14-.02.14-.02,1.64-.25,1.64-.55,1.64-4.34v-6.41h-11.08v6.44c0,3.75,0,4.05,1.64,4.3,0,0,.93.11,1.03.13v1.26h-10.54v-1.26s.13-.02.13-.02c.72-.09.57-.07.62-.07.06,0,.28-.04.28-.04,1.64-.25,1.64-.55,1.64-4.3v-13.74c0-3.78,0-4.09-1.64-4.33,0,0-.93-.12-1.04-.13v-1.26h10.54v1.26s-.13.02-.13.02c-.72.09-.6.08-.84.11-.02,0-.06,0-.06,0-1.64.24-1.64.55-1.64,4.3v5.35h11.08v-5.31c0-3.78,0-4.09-1.64-4.33,0,0-.92-.12-1.03-.13v-1.26h10.39Z"/><path class="cls-1" d="m138.8,35.96c.9-.19,1.01-.19,1.85-.23,0,0,.16,0,.16,0h0s9.97,18.62,9.97,18.62l.02.04s9.32-18.41,9.32-18.42c0,0,.06,0,.06,0,.81-.19,1.13-.23,1.92-.23h.14s1.14,20.66,1.14,20.66c.15,2.88.65,3.08,1.68,3.25,0,0,1.15.19,1.25.21v1.25h-10.91v-1.25s1.36-.21,1.36-.21c1.43-.25,1.81-.32,1.81-2.17v-.61s-.48-12.4-.48-12.4h-.05s-7.67,16.24-7.67,16.25c0,0-.05.01-.05.01-.53.19-.92.31-1.46.38,0,0-.08.01-.11.01-.02-.03-8.37-16.78-8.37-16.78l-.44,12.52-.02.8c0,1.62.38,1.7,1.81,1.98,0,0,1.26.19,1.37.21v1.25h-8.51v-1.25s1.1-.21,1.1-.21c1.01-.21,1.51-.42,1.69-2.91,0,0,1.26-20.35,1.29-20.75.03,0,.11-.02.11-.02Z"/><path class="cls-1" d="m217.25,35.95h.12s.03.12.03.12c.46,1.94.46,4.16.46,6.13v.13s-1.58.22-1.62.23c0-.03-.03-.14-.03-.14-.97-4.74-2.14-4.74-6.03-4.74h-2.56v9.38h2.41c3.37,0,3.75-.05,3.96-1.49,0,0,.2-1.41.21-1.45h1.26v7.79h-1.25s-.21-1.33-.21-1.33c-.24-1.53-.65-1.53-3.81-1.53h-2.56v9.79h.02c1.15.28,2.39.54,3.64.54,5.21,0,5.86-2.49,6.55-5.13,0,0,.13-.51.16-.62.04,0,1.58.31,1.62.32,0,.03,0,.13,0,.13-.17,2.46-.44,4.47-1.25,6.93,0,0-.03.08-.03.1h-18.56v-1.26s1.02-.13,1.02-.13c0,0,.14-.02.14-.02q1.51-.29,1.51-4.31v-13.71q0-3.96-1.44-4.28l-.21-.04s-.21-.03-1.03-.15v-1.26h17.51Z"/><path class="cls-1" d="m121.44,35.95h8.63s0,1.23,0,1.27c-.03,0-.85.24-.85.24-1,.27-1.48.51-1.52,3.02q-.23,9.23-.23,9.23l-.05,1.76c-.35,6.77-3.69,10.2-9.91,10.2-7.76,0-11.53-3.52-11.53-10.75v-9.28c0-3.74,0-4.05-1.64-4.3,0,0-.92-.12-1.03-.13v-1.26h10.54v1.26s-1.03.13-1.03.13c-1.65.25-1.65.55-1.65,4.3v11.24c0,4.04,2.79,6.75,6.95,6.75,2.7,0,5.78-1.57,6.33-5.98.16-1.25.19-2.37.2-3.88l-.15-9.76c-.03-2.4-.29-2.44-1.95-2.67,0,0-1-.11-1.11-.13v-1.24Z"/><path class="cls-1" d="m186.85,47.35l-.09-.02.09-.03c3.2-1.1,4.82-3.12,4.82-6,0-3.55-2.76-5.34-8.21-5.34h-11.37v1.26c.11.01,1.03.13,1.03.13l.13.03q1.51.29,1.51,4.23v13.78q0,3.99-1.48,4.3s-.17.04-.18.04c0,0-.98.12-1.02.13v1.26h9.94c7.09,0,10.84-2.5,10.84-7.23,0-4.98-4.61-6.25-6.02-6.52Zm-6.9-9.43h.02c.58-.16,1.15-.24,1.76-.24,2.88,0,4.75,1.77,4.75,4.52,0,4.18-2.82,4.71-5.28,4.71h-1.25v-9Zm2.91,21.46c-.9,0-1.9-.19-2.89-.56h-.02v-10.18h1.47c4.61,0,6.25,2.98,6.25,5.77,0,3.21-1.71,4.97-4.82,4.97Z"/><path class="cls-1" d="m249.52,59.82c-.68-.07-1.6-.17-2.21-.95-2.49-3.15-5.12-8.15-5.93-9.95v-.02s.01-.01.01-.01c1.43-.68,4.75-2.67,4.75-6.49,0-5.71-4.83-6.44-9.03-6.44h-10.99v1.26c.11.01,1,.13,1,.13,1.68.25,1.68.48,1.68,4.3v13.74c0,3.78,0,4.09-1.64,4.34,0,0-.1.02-.15.02-.09.01-.06,0-.75.09,0,0-.1.01-.13.02v1.26h10.54v-1.26c-.11-.01-1.04-.13-1.04-.13-1.64-.25-1.64-.55-1.64-4.3v-5.09h1.05c1.82,0,2.21.83,2.98,2.48l.66,1.35,1.43,2.79c.97,1.93,2.55,4.15,6.23,4.15h3.43v-1.26s-.24-.03-.24-.03Zm-13.85-11.21h-1.69v-10.69h.02c.58-.16,1.16-.24,1.79-.24,3.14,0,5.17,2.07,5.17,5.28,0,1.4,0,5.65-5.28,5.65Z"/><path class="cls-1" d="m56.01,32.61c0,1.97-1.6,3.56-3.55,3.56s-3.56-1.59-3.56-3.56,1.59-3.56,3.56-3.56,3.55,1.6,3.55,3.56Z"/><path class="cls-1" d="m11.84,55.45v-18.99h5.54v14c3.94-3.25,8.16-6.16,12.45-8.68v-11.99h5.53v8.98c3.51-1.76,7.03-3.24,10.46-4.42-4.54-6.62-12.16-10.97-20.79-10.97C11.12,23.38-.14,34.64-.14,48.54c0,5.58,1.83,10.74,4.91,14.92,2.14-2.82,4.51-5.5,7.07-8.02Z"/><path class="cls-1" d="m46.29,35.08c-3.64,1.49-7.33,3.52-10.93,5.99v26.2h-5.53v-21.97c-7.63,6.43-14.38,14.84-18.58,24.29,3.96,2.59,8.69,4.09,13.78,4.09,13.9,0,25.17-11.25,25.17-25.14,0-4.95-1.44-9.57-3.91-13.46Z"/></svg>