<?xml version="1.0" encoding="UTF-8"?>
<svg id="Layer_1" data-name="Layer 1" xmlns="http://www.w3.org/2000/svg" viewBox="0 0 149.63 125.02">
  <defs>
    <style>
      .cls-1 {
        fill: #fff;
        stroke-width: 0px;
      }
    </style>
  </defs>
  <path class="cls-1" d="m149.63,8.85c0,4.88-3.81,8.85-8.46,8.85s-8.48-3.96-8.48-8.85,3.79-8.85,8.48-8.85,8.46,3.97,8.46,8.85Z"/>
  <g>
    <path class="cls-1" d="m28.56,79.69v-47.18h13.21v34.8c9.4-8.07,19.45-15.31,29.7-21.57V15.94h13.18v22.32c8.38-4.37,16.77-8.05,24.93-10.99C98.76,10.82,80.58,0,60.01,0,26.85,0,0,27.99,0,62.54c0,13.87,4.35,26.7,11.71,37.08,5.1-7,10.75-13.66,16.85-19.93Z"/>
    <path class="cls-1" d="m110.71,29.08c-8.67,3.71-17.49,8.74-26.07,14.89v65.11h-13.18v-54.6c-18.19,15.99-34.29,36.89-44.31,60.36,9.44,6.44,20.72,10.17,32.85,10.17,33.14,0,60.02-27.96,60.02-62.48,0-12.31-3.42-23.78-9.32-33.46Z"/>
  </g>
</svg>